<mxfile host="app.diagrams.net" modified="2020-08-29T06:57:13.406Z" agent="5.0 (X11; Linux x86_64) AppleWebKit/537.36 (KHTML, like Gecko) Chrome/84.0.4147.125 Safari/537.36" etag="KaQxIF7xU-61slJjWY13" version="13.6.5" type="github">
  <diagram id="d2bJDyH4YY4jTTXs1ROH" name="Page-1">
    <mxGraphModel dx="2012" dy="706" grid="1" gridSize="10" guides="1" tooltips="1" connect="1" arrows="1" fold="1" page="1" pageScale="1" pageWidth="827" pageHeight="1169" math="0" shadow="0">
      <root>
        <mxCell id="0" />
        <mxCell id="1" parent="0" />
        <mxCell id="aKae5eKDBznJ4Y1164LR-3" value="Wallet" style="rounded=0;whiteSpace=wrap;html=1;" parent="1" vertex="1">
          <mxGeometry x="160" y="20" width="80" height="20" as="geometry" />
        </mxCell>
        <mxCell id="aKae5eKDBznJ4Y1164LR-4" value="Wallet SDK" style="rounded=0;whiteSpace=wrap;html=1;" parent="1" vertex="1">
          <mxGeometry x="400" y="20" width="70" height="20" as="geometry" />
        </mxCell>
        <mxCell id="aKae5eKDBznJ4Y1164LR-5" value="Nexa" style="rounded=0;whiteSpace=wrap;html=1;" parent="1" vertex="1">
          <mxGeometry x="638.83" y="20" width="60" height="20" as="geometry" />
        </mxCell>
        <mxCell id="aKae5eKDBznJ4Y1164LR-6" value="Registration" style="shape=note;whiteSpace=wrap;html=1;backgroundOutline=1;darkOpacity=0.05;fillColor=#fff2cc;strokeColor=#d6b656;" parent="1" vertex="1">
          <mxGeometry x="230" y="70" width="170" height="20" as="geometry" />
        </mxCell>
        <mxCell id="aKae5eKDBznJ4Y1164LR-11" value="" style="endArrow=none;dashed=1;html=1;entryX=0.5;entryY=1;entryDx=0;entryDy=0;exitX=0;exitY=0.75;exitDx=0;exitDy=0;" parent="1" source="aKae5eKDBznJ4Y1164LR-12" target="aKae5eKDBznJ4Y1164LR-3" edge="1">
          <mxGeometry width="50" height="50" relative="1" as="geometry">
            <mxPoint x="210" y="100" as="sourcePoint" />
            <mxPoint x="180" y="60" as="targetPoint" />
          </mxGeometry>
        </mxCell>
        <mxCell id="aKae5eKDBznJ4Y1164LR-12" value="" style="rounded=0;whiteSpace=wrap;html=1;rotation=90;fillColor=#f8cecc;strokeColor=#b85450;" parent="1" vertex="1">
          <mxGeometry x="-12.8" y="330" width="432.8" height="10" as="geometry" />
        </mxCell>
        <mxCell id="aKae5eKDBznJ4Y1164LR-14" value="Mnemonic Seed request" style="text;html=1;strokeColor=none;fillColor=none;align=center;verticalAlign=middle;whiteSpace=wrap;rounded=0;" parent="1" vertex="1">
          <mxGeometry x="240" y="110" width="150" height="20" as="geometry" />
        </mxCell>
        <mxCell id="aKae5eKDBznJ4Y1164LR-15" value="" style="rounded=0;whiteSpace=wrap;html=1;rotation=90;fillColor=#f8cecc;strokeColor=#b85450;" parent="1" vertex="1">
          <mxGeometry x="225.26999999999998" y="330" width="444.73" height="10" as="geometry" />
        </mxCell>
        <mxCell id="aKae5eKDBznJ4Y1164LR-27" value="" style="endArrow=classic;html=1;" parent="1" edge="1">
          <mxGeometry width="50" height="50" relative="1" as="geometry">
            <mxPoint x="427" y="178" as="sourcePoint" />
            <mxPoint x="220" y="178" as="targetPoint" />
          </mxGeometry>
        </mxCell>
        <mxCell id="aKae5eKDBznJ4Y1164LR-28" value="Mnemonic Seed" style="text;html=1;strokeColor=none;fillColor=none;align=center;verticalAlign=middle;whiteSpace=wrap;rounded=0;" parent="1" vertex="1">
          <mxGeometry x="250" y="160.63" width="120" height="20" as="geometry" />
        </mxCell>
        <mxCell id="aKae5eKDBznJ4Y1164LR-29" value="" style="endArrow=classic;html=1;" parent="1" edge="1">
          <mxGeometry width="50" height="50" relative="1" as="geometry">
            <mxPoint x="220" y="130" as="sourcePoint" />
            <mxPoint x="430" y="130" as="targetPoint" />
          </mxGeometry>
        </mxCell>
        <mxCell id="aKae5eKDBznJ4Y1164LR-32" value="NewUser" style="shape=umlActor;verticalLabelPosition=bottom;verticalAlign=top;html=1;outlineConnect=0;" parent="1" vertex="1">
          <mxGeometry x="20" y="110" width="30" height="46.25" as="geometry" />
        </mxCell>
        <mxCell id="aKae5eKDBznJ4Y1164LR-33" value="" style="endArrow=classic;html=1;" parent="1" source="aKae5eKDBznJ4Y1164LR-32" edge="1">
          <mxGeometry width="50" height="50" relative="1" as="geometry">
            <mxPoint x="390" y="190" as="sourcePoint" />
            <mxPoint x="200" y="133" as="targetPoint" />
          </mxGeometry>
        </mxCell>
        <mxCell id="aKae5eKDBznJ4Y1164LR-36" value="Mnemonic Seed + Password" style="text;html=1;strokeColor=none;fillColor=none;align=center;verticalAlign=middle;whiteSpace=wrap;rounded=0;" parent="1" vertex="1">
          <mxGeometry x="240" y="210" width="160" height="20" as="geometry" />
        </mxCell>
        <mxCell id="aKae5eKDBznJ4Y1164LR-37" value="" style="endArrow=classic;html=1;" parent="1" edge="1">
          <mxGeometry width="50" height="50" relative="1" as="geometry">
            <mxPoint x="220" y="230" as="sourcePoint" />
            <mxPoint x="430" y="230" as="targetPoint" />
          </mxGeometry>
        </mxCell>
        <mxCell id="aKae5eKDBznJ4Y1164LR-38" value="" style="endArrow=classic;html=1;" parent="1" edge="1">
          <mxGeometry width="50" height="50" relative="1" as="geometry">
            <mxPoint x="430" y="440" as="sourcePoint" />
            <mxPoint x="210" y="440" as="targetPoint" />
          </mxGeometry>
        </mxCell>
        <mxCell id="aKae5eKDBznJ4Y1164LR-40" value="20 [Derived Keys]" style="text;html=1;strokeColor=none;fillColor=none;align=center;verticalAlign=middle;whiteSpace=wrap;rounded=0;" parent="1" vertex="1">
          <mxGeometry x="240" y="410" width="120" height="20" as="geometry" />
        </mxCell>
        <mxCell id="aKae5eKDBznJ4Y1164LR-45" value="" style="endArrow=none;dashed=1;html=1;" parent="1" edge="1">
          <mxGeometry width="50" height="50" relative="1" as="geometry">
            <mxPoint x="40" y="230" as="sourcePoint" />
            <mxPoint x="40" y="180" as="targetPoint" />
          </mxGeometry>
        </mxCell>
        <mxCell id="aKae5eKDBznJ4Y1164LR-46" value="" style="endArrow=none;dashed=1;html=1;" parent="1" edge="1">
          <mxGeometry width="50" height="50" relative="1" as="geometry">
            <mxPoint x="40" y="230" as="sourcePoint" />
            <mxPoint x="200" y="230" as="targetPoint" />
          </mxGeometry>
        </mxCell>
        <mxCell id="aKae5eKDBznJ4Y1164LR-47" value="Enter Password" style="text;html=1;strokeColor=none;fillColor=none;align=center;verticalAlign=middle;whiteSpace=wrap;rounded=0;" parent="1" vertex="1">
          <mxGeometry x="70" y="207.81" width="100" height="20" as="geometry" />
        </mxCell>
        <mxCell id="aKae5eKDBznJ4Y1164LR-48" value="" style="rounded=0;whiteSpace=wrap;html=1;rotation=90;fillColor=#f8cecc;strokeColor=#b85450;" parent="1" vertex="1">
          <mxGeometry x="126.88" y="1409.38" width="226.25" height="10" as="geometry" />
        </mxCell>
        <mxCell id="aKae5eKDBznJ4Y1164LR-49" value="" style="rounded=0;whiteSpace=wrap;html=1;rotation=90;fillColor=#f8cecc;strokeColor=#b85450;" parent="1" vertex="1">
          <mxGeometry x="346.09" y="1412.74" width="237.81" height="10" as="geometry" />
        </mxCell>
        <mxCell id="aKae5eKDBznJ4Y1164LR-51" value="" style="endArrow=classic;html=1;" parent="1" edge="1">
          <mxGeometry width="50" height="50" relative="1" as="geometry">
            <mxPoint x="250" y="1350" as="sourcePoint" />
            <mxPoint x="460" y="1350" as="targetPoint" />
          </mxGeometry>
        </mxCell>
        <mxCell id="aKae5eKDBznJ4Y1164LR-52" value="getOutputs([Derived keys])&lt;br&gt;Recursively fetch outputs until we find 20 keys with no outputs" style="text;html=1;strokeColor=none;fillColor=none;align=left;verticalAlign=top;whiteSpace=wrap;rounded=0;" parent="1" vertex="1">
          <mxGeometry x="267.56" y="1300" width="170" height="50" as="geometry" />
        </mxCell>
        <mxCell id="aKae5eKDBznJ4Y1164LR-53" value="" style="endArrow=classic;html=1;" parent="1" edge="1">
          <mxGeometry width="50" height="50" relative="1" as="geometry">
            <mxPoint x="460" y="1390" as="sourcePoint" />
            <mxPoint x="245" y="1390" as="targetPoint" />
          </mxGeometry>
        </mxCell>
        <mxCell id="aKae5eKDBznJ4Y1164LR-54" value="[Outputs]" style="text;html=1;strokeColor=none;fillColor=none;align=center;verticalAlign=middle;whiteSpace=wrap;rounded=0;" parent="1" vertex="1">
          <mxGeometry x="322.64" y="1360" width="40" height="30" as="geometry" />
        </mxCell>
        <mxCell id="aKae5eKDBznJ4Y1164LR-63" value="GetCurrentBalance&lt;br&gt;(Cumulate unspent outputs)" style="text;html=1;strokeColor=none;fillColor=none;align=center;verticalAlign=middle;whiteSpace=wrap;rounded=0;" parent="1" vertex="1">
          <mxGeometry x="262.5" y="1440" width="155" height="50" as="geometry" />
        </mxCell>
        <mxCell id="aKae5eKDBznJ4Y1164LR-64" value="CurrentBalance" style="text;html=1;strokeColor=none;fillColor=none;align=center;verticalAlign=middle;whiteSpace=wrap;rounded=0;" parent="1" vertex="1">
          <mxGeometry x="305" y="1520" width="40" height="20" as="geometry" />
        </mxCell>
        <mxCell id="aKae5eKDBznJ4Y1164LR-66" value="" style="edgeStyle=orthogonalEdgeStyle;html=1;align=left;spacingLeft=2;endArrow=block;rounded=0;" parent="1" edge="1">
          <mxGeometry x="1" y="273" relative="1" as="geometry">
            <mxPoint x="250" y="1480" as="sourcePoint" />
            <Array as="points">
              <mxPoint x="245" y="1480" />
              <mxPoint x="330" y="1480" />
              <mxPoint x="330" y="1520" />
            </Array>
            <mxPoint x="246" y="1520" as="targetPoint" />
            <mxPoint x="-196" y="-83" as="offset" />
          </mxGeometry>
        </mxCell>
        <mxCell id="aKae5eKDBznJ4Y1164LR-76" value="" style="rounded=0;whiteSpace=wrap;html=1;rotation=90;fillColor=#f8cecc;strokeColor=#b85450;" parent="1" vertex="1">
          <mxGeometry x="594.74" y="1411.52" width="230" height="10" as="geometry" />
        </mxCell>
        <mxCell id="aKae5eKDBznJ4Y1164LR-77" value="" style="endArrow=none;dashed=1;html=1;" parent="1" edge="1">
          <mxGeometry width="50" height="50" relative="1" as="geometry">
            <mxPoint x="668.33" y="541" as="sourcePoint" />
            <mxPoint x="668.57" y="50" as="targetPoint" />
            <Array as="points">
              <mxPoint x="669.07" y="80" />
            </Array>
          </mxGeometry>
        </mxCell>
        <mxCell id="aKae5eKDBznJ4Y1164LR-80" value="getOutputs([Derived keys])" style="text;html=1;strokeColor=none;fillColor=none;align=center;verticalAlign=middle;whiteSpace=wrap;rounded=0;" parent="1" vertex="1">
          <mxGeometry x="500" y="1330" width="170" height="20" as="geometry" />
        </mxCell>
        <mxCell id="aKae5eKDBznJ4Y1164LR-82" value="[Outputs]" style="text;html=1;strokeColor=none;fillColor=none;align=center;verticalAlign=middle;whiteSpace=wrap;rounded=0;" parent="1" vertex="1">
          <mxGeometry x="560" y="1360" width="40" height="30" as="geometry" />
        </mxCell>
        <mxCell id="aKae5eKDBznJ4Y1164LR-86" value="Recent Transaction" style="shape=note;whiteSpace=wrap;html=1;backgroundOutline=1;darkOpacity=0.05;fillColor=#fff2cc;strokeColor=#d6b656;" parent="1" vertex="1">
          <mxGeometry x="269" y="1600" width="180" height="30" as="geometry" />
        </mxCell>
        <mxCell id="aKae5eKDBznJ4Y1164LR-88" value="" style="rounded=0;whiteSpace=wrap;html=1;rotation=90;fillColor=#f8cecc;strokeColor=#b85450;" parent="1" vertex="1">
          <mxGeometry x="148.75" y="1784.75" width="180" height="10" as="geometry" />
        </mxCell>
        <mxCell id="aKae5eKDBznJ4Y1164LR-89" value="" style="rounded=0;whiteSpace=wrap;html=1;rotation=90;fillColor=#f8cecc;strokeColor=#b85450;" parent="1" vertex="1">
          <mxGeometry x="378.88" y="1784.3600000000001" width="179.21" height="10" as="geometry" />
        </mxCell>
        <mxCell id="aKae5eKDBznJ4Y1164LR-90" value="" style="rounded=0;whiteSpace=wrap;html=1;rotation=90;fillColor=#f8cecc;strokeColor=#b85450;" parent="1" vertex="1">
          <mxGeometry x="620.48" y="1784.01" width="178.52" height="10" as="geometry" />
        </mxCell>
        <mxCell id="aKae5eKDBznJ4Y1164LR-91" value="" style="endArrow=classic;html=1;" parent="1" edge="1">
          <mxGeometry width="50" height="50" relative="1" as="geometry">
            <mxPoint x="247.5" y="1770" as="sourcePoint" />
            <mxPoint x="457.5" y="1770" as="targetPoint" />
          </mxGeometry>
        </mxCell>
        <mxCell id="aKae5eKDBznJ4Y1164LR-92" value="getTransactions(unique TransactionHash from outputs)" style="text;html=1;strokeColor=none;fillColor=none;align=center;verticalAlign=middle;whiteSpace=wrap;rounded=0;" parent="1" vertex="1">
          <mxGeometry x="277.5" y="1731" width="140" height="20" as="geometry" />
        </mxCell>
        <mxCell id="aKae5eKDBznJ4Y1164LR-94" value="getTransactions([transactionHash])" style="text;html=1;strokeColor=none;fillColor=none;align=center;verticalAlign=middle;whiteSpace=wrap;rounded=0;" parent="1" vertex="1">
          <mxGeometry x="515.01" y="1731" width="140" height="20" as="geometry" />
        </mxCell>
        <mxCell id="aKae5eKDBznJ4Y1164LR-97" value="" style="endArrow=classic;html=1;" parent="1" edge="1">
          <mxGeometry width="50" height="50" relative="1" as="geometry">
            <mxPoint x="460" y="1821" as="sourcePoint" />
            <mxPoint x="245" y="1821" as="targetPoint" />
          </mxGeometry>
        </mxCell>
        <mxCell id="aKae5eKDBznJ4Y1164LR-98" value="[Transactions]" style="text;html=1;strokeColor=none;fillColor=none;align=center;verticalAlign=middle;whiteSpace=wrap;rounded=0;" parent="1" vertex="1">
          <mxGeometry x="317.19" y="1796" width="95" height="20" as="geometry" />
        </mxCell>
        <mxCell id="aKae5eKDBznJ4Y1164LR-99" value="[Transactions]" style="text;html=1;strokeColor=none;fillColor=none;align=center;verticalAlign=middle;whiteSpace=wrap;rounded=0;" parent="1" vertex="1">
          <mxGeometry x="541.19" y="1786" width="87.63" height="30" as="geometry" />
        </mxCell>
        <mxCell id="aKae5eKDBznJ4Y1164LR-119" value="" style="endArrow=classic;html=1;" parent="1" edge="1">
          <mxGeometry width="50" height="50" relative="1" as="geometry">
            <mxPoint x="480.01" y="1350" as="sourcePoint" />
            <mxPoint x="700" y="1350" as="targetPoint" />
          </mxGeometry>
        </mxCell>
        <mxCell id="aKae5eKDBznJ4Y1164LR-120" value="" style="endArrow=classic;html=1;" parent="1" edge="1">
          <mxGeometry width="50" height="50" relative="1" as="geometry">
            <mxPoint x="700" y="1390" as="sourcePoint" />
            <mxPoint x="480.01" y="1390" as="targetPoint" />
          </mxGeometry>
        </mxCell>
        <mxCell id="aKae5eKDBznJ4Y1164LR-121" value="" style="endArrow=classic;html=1;" parent="1" edge="1">
          <mxGeometry width="50" height="50" relative="1" as="geometry">
            <mxPoint x="480" y="1760" as="sourcePoint" />
            <mxPoint x="700" y="1760" as="targetPoint" />
          </mxGeometry>
        </mxCell>
        <mxCell id="aKae5eKDBznJ4Y1164LR-122" value="" style="endArrow=classic;html=1;" parent="1" edge="1">
          <mxGeometry width="50" height="50" relative="1" as="geometry">
            <mxPoint x="705" y="1821" as="sourcePoint" />
            <mxPoint x="480" y="1821" as="targetPoint" />
          </mxGeometry>
        </mxCell>
        <mxCell id="dy_9rE8HRgi9Pd3eRH8T-1" value="ExistingUser" style="shape=umlActor;verticalLabelPosition=bottom;verticalAlign=top;html=1;outlineConnect=0;" parent="1" vertex="1">
          <mxGeometry x="25" y="283.75" width="30" height="46.25" as="geometry" />
        </mxCell>
        <mxCell id="dy_9rE8HRgi9Pd3eRH8T-5" value="" style="endArrow=none;dashed=1;html=1;" parent="1" edge="1">
          <mxGeometry width="50" height="50" relative="1" as="geometry">
            <mxPoint x="40" y="240" as="sourcePoint" />
            <mxPoint x="200" y="240" as="targetPoint" />
          </mxGeometry>
        </mxCell>
        <mxCell id="dy_9rE8HRgi9Pd3eRH8T-8" value="" style="endArrow=none;dashed=1;html=1;" parent="1" edge="1">
          <mxGeometry width="50" height="50" relative="1" as="geometry">
            <mxPoint x="40" y="280" as="sourcePoint" />
            <mxPoint x="40" y="240" as="targetPoint" />
          </mxGeometry>
        </mxCell>
        <mxCell id="dy_9rE8HRgi9Pd3eRH8T-11" value="Mnemonic Seed + Password" style="text;html=1;strokeColor=none;fillColor=none;align=center;verticalAlign=middle;whiteSpace=wrap;rounded=0;" parent="1" vertex="1">
          <mxGeometry x="50" y="250" width="140" height="30" as="geometry" />
        </mxCell>
        <mxCell id="dy_9rE8HRgi9Pd3eRH8T-70" value="" style="rounded=0;whiteSpace=wrap;html=1;rotation=90;fillColor=#f8cecc;strokeColor=#b85450;" parent="1" vertex="1">
          <mxGeometry x="525.63" y="2722.38" width="386.75" height="10" as="geometry" />
        </mxCell>
        <mxCell id="dy_9rE8HRgi9Pd3eRH8T-71" value="" style="endArrow=classic;html=1;" parent="1" edge="1">
          <mxGeometry width="50" height="50" relative="1" as="geometry">
            <mxPoint x="483" y="2619" as="sourcePoint" />
            <mxPoint x="710" y="2619" as="targetPoint" />
          </mxGeometry>
        </mxCell>
        <mxCell id="dy_9rE8HRgi9Pd3eRH8T-72" value="[unspentOutputs]" style="text;html=1;strokeColor=none;fillColor=none;align=center;verticalAlign=middle;whiteSpace=wrap;rounded=0;" parent="1" vertex="1">
          <mxGeometry x="551.2" y="2654.75" width="87.63" height="30" as="geometry" />
        </mxCell>
        <mxCell id="dy_9rE8HRgi9Pd3eRH8T-74" value="" style="rounded=0;whiteSpace=wrap;html=1;rotation=90;fillColor=#f8cecc;strokeColor=#b85450;" parent="1" vertex="1">
          <mxGeometry x="274.22" y="2718.87" width="401.08" height="10" as="geometry" />
        </mxCell>
        <mxCell id="dy_9rE8HRgi9Pd3eRH8T-75" value="" style="rounded=0;whiteSpace=wrap;html=1;rotation=90;fillColor=#f8cecc;strokeColor=#b85450;" parent="1" vertex="1">
          <mxGeometry x="38.43" y="2716.32" width="400" height="10" as="geometry" />
        </mxCell>
        <mxCell id="dy_9rE8HRgi9Pd3eRH8T-77" value="" style="endArrow=classic;html=1;" parent="1" edge="1">
          <mxGeometry width="50" height="50" relative="1" as="geometry">
            <mxPoint x="250" y="2619" as="sourcePoint" />
            <mxPoint x="467.5" y="2619" as="targetPoint" />
          </mxGeometry>
        </mxCell>
        <mxCell id="dy_9rE8HRgi9Pd3eRH8T-78" value="[unspentOutputs]" style="text;html=1;strokeColor=none;fillColor=none;align=center;verticalAlign=middle;whiteSpace=wrap;rounded=0;" parent="1" vertex="1">
          <mxGeometry x="321.19000000000005" y="2657.44" width="87.63" height="30" as="geometry" />
        </mxCell>
        <mxCell id="dy_9rE8HRgi9Pd3eRH8T-79" value="" style="endArrow=classic;html=1;" parent="1" edge="1">
          <mxGeometry width="50" height="50" relative="1" as="geometry">
            <mxPoint x="459.75" y="2684.75" as="sourcePoint" />
            <mxPoint x="244.00000000000023" y="2684.75" as="targetPoint" />
          </mxGeometry>
        </mxCell>
        <mxCell id="dy_9rE8HRgi9Pd3eRH8T-80" value="Send Coin" style="shape=note;whiteSpace=wrap;html=1;backgroundOutline=1;darkOpacity=0.05;fillColor=#fff2cc;strokeColor=#d6b656;" parent="1" vertex="1">
          <mxGeometry x="305.13" y="2350" width="140" height="30" as="geometry" />
        </mxCell>
        <mxCell id="dy_9rE8HRgi9Pd3eRH8T-118" value="User" style="shape=umlActor;verticalLabelPosition=bottom;verticalAlign=top;html=1;outlineConnect=0;" parent="1" vertex="1">
          <mxGeometry x="50" y="1701" width="30" height="49" as="geometry" />
        </mxCell>
        <mxCell id="dy_9rE8HRgi9Pd3eRH8T-122" value="Get Current Balance" style="shape=note;whiteSpace=wrap;html=1;backgroundOutline=1;darkOpacity=0.05;fillColor=#fff2cc;strokeColor=#d6b656;" parent="1" vertex="1">
          <mxGeometry x="266.84" y="1220" width="190" height="40" as="geometry" />
        </mxCell>
        <mxCell id="dy_9rE8HRgi9Pd3eRH8T-123" value="" style="strokeWidth=2;html=1;shape=mxgraph.flowchart.database;whiteSpace=wrap;" parent="1" vertex="1">
          <mxGeometry x="10.000000000000014" y="400" width="60" height="60" as="geometry" />
        </mxCell>
        <mxCell id="dy_9rE8HRgi9Pd3eRH8T-124" value="Persist" style="text;html=1;strokeColor=none;fillColor=none;align=center;verticalAlign=middle;whiteSpace=wrap;rounded=0;" parent="1" vertex="1">
          <mxGeometry x="20" y="460" width="40" height="30" as="geometry" />
        </mxCell>
        <mxCell id="dy_9rE8HRgi9Pd3eRH8T-126" value="" style="endArrow=classic;html=1;entryX=1.017;entryY=0.683;entryDx=0;entryDy=0;entryPerimeter=0;" parent="1" target="dy_9rE8HRgi9Pd3eRH8T-123" edge="1">
          <mxGeometry width="50" height="50" relative="1" as="geometry">
            <mxPoint x="200" y="441" as="sourcePoint" />
            <mxPoint x="380" y="410" as="targetPoint" />
          </mxGeometry>
        </mxCell>
        <mxCell id="dy_9rE8HRgi9Pd3eRH8T-127" value="Mnemonic Seed + Password" style="text;html=1;strokeColor=none;fillColor=none;align=center;verticalAlign=middle;whiteSpace=wrap;rounded=0;" parent="1" vertex="1">
          <mxGeometry x="80" y="400" width="110" height="40" as="geometry" />
        </mxCell>
        <mxCell id="dy_9rE8HRgi9Pd3eRH8T-162" value="Login" style="shape=note;whiteSpace=wrap;html=1;backgroundOutline=1;darkOpacity=0.05;fillColor=#fff2cc;strokeColor=#d6b656;" parent="1" vertex="1">
          <mxGeometry x="230" y="580" width="170" height="20" as="geometry" />
        </mxCell>
        <mxCell id="dy_9rE8HRgi9Pd3eRH8T-163" value="" style="rounded=0;whiteSpace=wrap;html=1;rotation=90;fillColor=#f8cecc;strokeColor=#b85450;" parent="1" vertex="1">
          <mxGeometry x="19.6" y="774.78" width="367.99" height="10" as="geometry" />
        </mxCell>
        <mxCell id="dy_9rE8HRgi9Pd3eRH8T-165" value="" style="rounded=0;whiteSpace=wrap;html=1;rotation=90;fillColor=#f8cecc;strokeColor=#b85450;" parent="1" vertex="1">
          <mxGeometry x="266.84" y="775.54" width="360" height="10" as="geometry" />
        </mxCell>
        <mxCell id="dy_9rE8HRgi9Pd3eRH8T-169" value="User" style="shape=umlActor;verticalLabelPosition=bottom;verticalAlign=top;html=1;outlineConnect=0;" parent="1" vertex="1">
          <mxGeometry x="25" y="620" width="30" height="46.25" as="geometry" />
        </mxCell>
        <mxCell id="dy_9rE8HRgi9Pd3eRH8T-170" value="" style="endArrow=classic;html=1;" parent="1" source="dy_9rE8HRgi9Pd3eRH8T-169" edge="1">
          <mxGeometry width="50" height="50" relative="1" as="geometry">
            <mxPoint x="390" y="700" as="sourcePoint" />
            <mxPoint x="200" y="643" as="targetPoint" />
          </mxGeometry>
        </mxCell>
        <mxCell id="dy_9rE8HRgi9Pd3eRH8T-188" value="" style="strokeWidth=2;html=1;shape=mxgraph.flowchart.database;whiteSpace=wrap;" parent="1" vertex="1">
          <mxGeometry x="5" y="720" width="60" height="60" as="geometry" />
        </mxCell>
        <mxCell id="dy_9rE8HRgi9Pd3eRH8T-189" value="Persist" style="text;html=1;strokeColor=none;fillColor=none;align=center;verticalAlign=middle;whiteSpace=wrap;rounded=0;" parent="1" vertex="1">
          <mxGeometry x="10" y="782.37" width="40" height="30" as="geometry" />
        </mxCell>
        <mxCell id="dy_9rE8HRgi9Pd3eRH8T-190" value="Password" style="text;html=1;strokeColor=none;fillColor=none;align=center;verticalAlign=middle;whiteSpace=wrap;rounded=0;" parent="1" vertex="1">
          <mxGeometry x="103.75" y="620" width="40" height="20" as="geometry" />
        </mxCell>
        <mxCell id="dy_9rE8HRgi9Pd3eRH8T-191" value="Encrypted Password" style="text;html=1;strokeColor=none;fillColor=none;align=center;verticalAlign=middle;whiteSpace=wrap;rounded=0;" parent="1" vertex="1">
          <mxGeometry x="80" y="700" width="90" height="20" as="geometry" />
        </mxCell>
        <mxCell id="dy_9rE8HRgi9Pd3eRH8T-192" value="" style="endArrow=classic;html=1;" parent="1" edge="1">
          <mxGeometry width="50" height="50" relative="1" as="geometry">
            <mxPoint x="70" y="729.5" as="sourcePoint" />
            <mxPoint x="200" y="729.4963636363638" as="targetPoint" />
          </mxGeometry>
        </mxCell>
        <mxCell id="dy_9rE8HRgi9Pd3eRH8T-193" value="" style="edgeStyle=orthogonalEdgeStyle;html=1;align=left;spacingLeft=2;endArrow=block;rounded=0;" parent="1" edge="1">
          <mxGeometry x="1" y="273" relative="1" as="geometry">
            <mxPoint x="216" y="760" as="sourcePoint" />
            <Array as="points">
              <mxPoint x="215" y="760" />
              <mxPoint x="300" y="760" />
              <mxPoint x="300" y="800" />
            </Array>
            <mxPoint x="216" y="800" as="targetPoint" />
            <mxPoint x="-196" y="-83" as="offset" />
          </mxGeometry>
        </mxCell>
        <mxCell id="dy_9rE8HRgi9Pd3eRH8T-194" value="Verify Password" style="text;html=1;strokeColor=none;fillColor=none;align=center;verticalAlign=middle;whiteSpace=wrap;rounded=0;" parent="1" vertex="1">
          <mxGeometry x="212.64" y="740" width="110" height="20" as="geometry" />
        </mxCell>
        <mxCell id="dy_9rE8HRgi9Pd3eRH8T-200" value="" style="endArrow=classic;html=1;" parent="1" edge="1">
          <mxGeometry width="50" height="50" relative="1" as="geometry">
            <mxPoint x="220" y="860" as="sourcePoint" />
            <mxPoint x="430" y="860" as="targetPoint" />
          </mxGeometry>
        </mxCell>
        <mxCell id="dy_9rE8HRgi9Pd3eRH8T-201" value="Mnemonic + Password" style="text;html=1;strokeColor=none;fillColor=none;align=center;verticalAlign=middle;whiteSpace=wrap;rounded=0;" parent="1" vertex="1">
          <mxGeometry x="244" y="840" width="160" height="20" as="geometry" />
        </mxCell>
        <mxCell id="dy_9rE8HRgi9Pd3eRH8T-202" value="Mnemonic" style="text;html=1;strokeColor=none;fillColor=none;align=center;verticalAlign=middle;whiteSpace=wrap;rounded=0;" parent="1" vertex="1">
          <mxGeometry x="83.75" y="840" width="50" height="20" as="geometry" />
        </mxCell>
        <mxCell id="dy_9rE8HRgi9Pd3eRH8T-204" value="&amp;nbsp;20 [Derived Keys]" style="text;html=1;strokeColor=none;fillColor=none;align=center;verticalAlign=middle;whiteSpace=wrap;rounded=0;" parent="1" vertex="1">
          <mxGeometry x="260" y="890" width="112.5" height="20" as="geometry" />
        </mxCell>
        <mxCell id="dy_9rE8HRgi9Pd3eRH8T-205" value="" style="endArrow=none;dashed=1;html=1;" parent="1" edge="1">
          <mxGeometry width="50" height="50" relative="1" as="geometry">
            <mxPoint x="668" y="960" as="sourcePoint" />
            <mxPoint x="668.33" y="585" as="targetPoint" />
          </mxGeometry>
        </mxCell>
        <mxCell id="dy_9rE8HRgi9Pd3eRH8T-206" value="" style="endArrow=classic;html=1;exitX=0.25;exitY=1;exitDx=0;exitDy=0;rounded=0;" parent="1" source="dy_9rE8HRgi9Pd3eRH8T-189" edge="1">
          <mxGeometry width="50" height="50" relative="1" as="geometry">
            <mxPoint x="97" y="810" as="sourcePoint" />
            <mxPoint x="204" y="860" as="targetPoint" />
            <Array as="points">
              <mxPoint x="20" y="860" />
            </Array>
          </mxGeometry>
        </mxCell>
        <mxCell id="dy_9rE8HRgi9Pd3eRH8T-207" value="Wallet" style="rounded=0;whiteSpace=wrap;html=1;" parent="1" vertex="1">
          <mxGeometry x="200" y="1190" width="80" height="20" as="geometry" />
        </mxCell>
        <mxCell id="dy_9rE8HRgi9Pd3eRH8T-208" value="Wallet SDK" style="rounded=0;whiteSpace=wrap;html=1;" parent="1" vertex="1">
          <mxGeometry x="430" y="1190" width="70" height="20" as="geometry" />
        </mxCell>
        <mxCell id="dy_9rE8HRgi9Pd3eRH8T-209" value="Nexa" style="rounded=0;whiteSpace=wrap;html=1;" parent="1" vertex="1">
          <mxGeometry x="679.74" y="1190" width="60" height="20" as="geometry" />
        </mxCell>
        <mxCell id="dy_9rE8HRgi9Pd3eRH8T-210" value="" style="endArrow=none;dashed=1;html=1;entryX=0.5;entryY=1;entryDx=0;entryDy=0;" parent="1" target="dy_9rE8HRgi9Pd3eRH8T-207" edge="1">
          <mxGeometry width="50" height="50" relative="1" as="geometry">
            <mxPoint x="240" y="1301" as="sourcePoint" />
            <mxPoint x="410" y="1300" as="targetPoint" />
          </mxGeometry>
        </mxCell>
        <mxCell id="dy_9rE8HRgi9Pd3eRH8T-211" value="" style="endArrow=none;dashed=1;html=1;entryX=0.5;entryY=1;entryDx=0;entryDy=0;exitX=0;exitY=0.5;exitDx=0;exitDy=0;" parent="1" source="aKae5eKDBznJ4Y1164LR-49" target="dy_9rE8HRgi9Pd3eRH8T-208" edge="1">
          <mxGeometry width="50" height="50" relative="1" as="geometry">
            <mxPoint x="360" y="1350" as="sourcePoint" />
            <mxPoint x="410" y="1300" as="targetPoint" />
          </mxGeometry>
        </mxCell>
        <mxCell id="dy_9rE8HRgi9Pd3eRH8T-212" value="" style="endArrow=none;dashed=1;html=1;entryX=0.5;entryY=1;entryDx=0;entryDy=0;exitX=0;exitY=0.5;exitDx=0;exitDy=0;" parent="1" source="aKae5eKDBznJ4Y1164LR-76" target="dy_9rE8HRgi9Pd3eRH8T-209" edge="1">
          <mxGeometry width="50" height="50" relative="1" as="geometry">
            <mxPoint x="360" y="1350" as="sourcePoint" />
            <mxPoint x="410" y="1300" as="targetPoint" />
          </mxGeometry>
        </mxCell>
        <mxCell id="dy_9rE8HRgi9Pd3eRH8T-215" value="" style="endArrow=none;dashed=1;html=1;exitX=0;exitY=0.25;exitDx=0;exitDy=0;" parent="1" source="aKae5eKDBznJ4Y1164LR-88" edge="1">
          <mxGeometry width="50" height="50" relative="1" as="geometry">
            <mxPoint x="360" y="1650" as="sourcePoint" />
            <mxPoint x="240" y="1530" as="targetPoint" />
          </mxGeometry>
        </mxCell>
        <mxCell id="dy_9rE8HRgi9Pd3eRH8T-216" value="" style="endArrow=none;dashed=1;html=1;exitX=0;exitY=0.5;exitDx=0;exitDy=0;" parent="1" source="aKae5eKDBznJ4Y1164LR-89" edge="1">
          <mxGeometry width="50" height="50" relative="1" as="geometry">
            <mxPoint x="360" y="1650" as="sourcePoint" />
            <mxPoint x="470" y="1540" as="targetPoint" />
          </mxGeometry>
        </mxCell>
        <mxCell id="dy_9rE8HRgi9Pd3eRH8T-217" value="" style="endArrow=none;dashed=1;html=1;entryX=1;entryY=0.5;entryDx=0;entryDy=0;exitX=0;exitY=0.5;exitDx=0;exitDy=0;" parent="1" source="aKae5eKDBznJ4Y1164LR-90" target="aKae5eKDBznJ4Y1164LR-76" edge="1">
          <mxGeometry width="50" height="50" relative="1" as="geometry">
            <mxPoint x="360" y="1650" as="sourcePoint" />
            <mxPoint x="410" y="1600" as="targetPoint" />
          </mxGeometry>
        </mxCell>
        <mxCell id="dy_9rE8HRgi9Pd3eRH8T-218" value="" style="endArrow=none;dashed=1;html=1;" parent="1" edge="1">
          <mxGeometry width="50" height="50" relative="1" as="geometry">
            <mxPoint x="80" y="1730" as="sourcePoint" />
            <mxPoint x="231" y="1730" as="targetPoint" />
          </mxGeometry>
        </mxCell>
        <mxCell id="dy_9rE8HRgi9Pd3eRH8T-219" value="" style="shape=cylinder2;whiteSpace=wrap;html=1;boundedLbl=1;backgroundOutline=1;size=15;" parent="1" vertex="1">
          <mxGeometry x="20" y="1791" width="60" height="59" as="geometry" />
        </mxCell>
        <mxCell id="dy_9rE8HRgi9Pd3eRH8T-220" value="In-Memory DB" style="text;html=1;strokeColor=none;fillColor=none;align=center;verticalAlign=middle;whiteSpace=wrap;rounded=0;" parent="1" vertex="1">
          <mxGeometry x="3.75" y="1850" width="100" height="20" as="geometry" />
        </mxCell>
        <mxCell id="dy_9rE8HRgi9Pd3eRH8T-221" value="" style="endArrow=classic;html=1;entryX=1.05;entryY=0.542;entryDx=0;entryDy=0;entryPerimeter=0;" parent="1" target="dy_9rE8HRgi9Pd3eRH8T-219" edge="1">
          <mxGeometry width="50" height="50" relative="1" as="geometry">
            <mxPoint x="230" y="1823" as="sourcePoint" />
            <mxPoint x="410" y="1770" as="targetPoint" />
          </mxGeometry>
        </mxCell>
        <mxCell id="dy_9rE8HRgi9Pd3eRH8T-222" value="[Transactions]" style="text;html=1;strokeColor=none;fillColor=none;align=center;verticalAlign=middle;whiteSpace=wrap;rounded=0;" parent="1" vertex="1">
          <mxGeometry x="117.64" y="1796" width="95" height="20" as="geometry" />
        </mxCell>
        <mxCell id="dy_9rE8HRgi9Pd3eRH8T-223" value="Last synced" style="text;html=1;strokeColor=none;fillColor=none;align=center;verticalAlign=middle;whiteSpace=wrap;rounded=0;" parent="1" vertex="1">
          <mxGeometry x="126.88" y="1830" width="76.25" height="20" as="geometry" />
        </mxCell>
        <mxCell id="dy_9rE8HRgi9Pd3eRH8T-226" value="" style="rounded=0;whiteSpace=wrap;html=1;rotation=90;fillColor=#f8cecc;strokeColor=#b85450;" parent="1" vertex="1">
          <mxGeometry x="46.26" y="2123.75" width="387.49" height="10" as="geometry" />
        </mxCell>
        <mxCell id="dy_9rE8HRgi9Pd3eRH8T-229" value="" style="rounded=0;whiteSpace=wrap;html=1;rotation=90;fillColor=#f8cecc;strokeColor=#b85450;" parent="1" vertex="1">
          <mxGeometry x="273.62" y="2124.8900000000003" width="389.76" height="10" as="geometry" />
        </mxCell>
        <mxCell id="dy_9rE8HRgi9Pd3eRH8T-230" value="" style="endArrow=none;html=1;" parent="1" edge="1">
          <mxGeometry width="50" height="50" relative="1" as="geometry">
            <mxPoint x="470" y="1850" as="sourcePoint" />
            <mxPoint x="470" y="1800" as="targetPoint" />
          </mxGeometry>
        </mxCell>
        <mxCell id="dy_9rE8HRgi9Pd3eRH8T-231" value="" style="rounded=0;whiteSpace=wrap;html=1;rotation=90;fillColor=#f8cecc;strokeColor=#b85450;" parent="1" vertex="1">
          <mxGeometry x="513.32" y="2126.44" width="392.87" height="10" as="geometry" />
        </mxCell>
        <mxCell id="dy_9rE8HRgi9Pd3eRH8T-233" value="" style="endArrow=none;html=1;" parent="1" source="dy_9rE8HRgi9Pd3eRH8T-231" edge="1">
          <mxGeometry width="50" height="50" relative="1" as="geometry">
            <mxPoint x="360" y="1830" as="sourcePoint" />
            <mxPoint x="710" y="1800" as="targetPoint" />
          </mxGeometry>
        </mxCell>
        <mxCell id="dy_9rE8HRgi9Pd3eRH8T-237" value="self call" style="edgeStyle=orthogonalEdgeStyle;html=1;align=left;spacingLeft=2;endArrow=block;rounded=0;" parent="1" edge="1">
          <mxGeometry x="-0.1277" y="-430" relative="1" as="geometry">
            <mxPoint x="252.5" y="1970" as="sourcePoint" />
            <Array as="points">
              <mxPoint x="393" y="1970" />
              <mxPoint x="393" y="2010" />
            </Array>
            <mxPoint x="252" y="2010" as="targetPoint" />
            <mxPoint x="860" y="10" as="offset" />
          </mxGeometry>
        </mxCell>
        <mxCell id="dy_9rE8HRgi9Pd3eRH8T-238" value="getOutputs([derived keys])" style="text;html=1;strokeColor=none;fillColor=none;align=center;verticalAlign=middle;whiteSpace=wrap;rounded=0;" parent="1" vertex="1">
          <mxGeometry x="270" y="2040" width="150" height="20" as="geometry" />
        </mxCell>
        <mxCell id="dy_9rE8HRgi9Pd3eRH8T-239" value="[Outputs]" style="text;html=1;strokeColor=none;fillColor=none;align=center;verticalAlign=middle;whiteSpace=wrap;rounded=0;" parent="1" vertex="1">
          <mxGeometry x="305" y="2102.63" width="95" height="20" as="geometry" />
        </mxCell>
        <mxCell id="dy_9rE8HRgi9Pd3eRH8T-240" value="" style="endArrow=classic;html=1;" parent="1" edge="1">
          <mxGeometry width="50" height="50" relative="1" as="geometry">
            <mxPoint x="245" y="2070" as="sourcePoint" />
            <mxPoint x="455" y="2070" as="targetPoint" />
          </mxGeometry>
        </mxCell>
        <mxCell id="dy_9rE8HRgi9Pd3eRH8T-241" value="" style="endArrow=classic;html=1;" parent="1" edge="1">
          <mxGeometry width="50" height="50" relative="1" as="geometry">
            <mxPoint x="459" y="2130" as="sourcePoint" />
            <mxPoint x="244" y="2130" as="targetPoint" />
          </mxGeometry>
        </mxCell>
        <mxCell id="dy_9rE8HRgi9Pd3eRH8T-242" value="getOutputs([derived keys])" style="text;html=1;strokeColor=none;fillColor=none;align=center;verticalAlign=middle;whiteSpace=wrap;rounded=0;" parent="1" vertex="1">
          <mxGeometry x="510" y="2040" width="150" height="20" as="geometry" />
        </mxCell>
        <mxCell id="dy_9rE8HRgi9Pd3eRH8T-243" value="" style="endArrow=classic;html=1;" parent="1" edge="1">
          <mxGeometry width="50" height="50" relative="1" as="geometry">
            <mxPoint x="484.99" y="2069" as="sourcePoint" />
            <mxPoint x="704.99" y="2069" as="targetPoint" />
          </mxGeometry>
        </mxCell>
        <mxCell id="dy_9rE8HRgi9Pd3eRH8T-244" value="[Outputs]" style="text;html=1;strokeColor=none;fillColor=none;align=center;verticalAlign=middle;whiteSpace=wrap;rounded=0;" parent="1" vertex="1">
          <mxGeometry x="546.1800000000001" y="2095" width="87.63" height="30" as="geometry" />
        </mxCell>
        <mxCell id="dy_9rE8HRgi9Pd3eRH8T-245" value="" style="endArrow=classic;html=1;" parent="1" edge="1">
          <mxGeometry width="50" height="50" relative="1" as="geometry">
            <mxPoint x="709.99" y="2130" as="sourcePoint" />
            <mxPoint x="484.99" y="2130" as="targetPoint" />
          </mxGeometry>
        </mxCell>
        <mxCell id="dy_9rE8HRgi9Pd3eRH8T-246" value="" style="shape=cylinder2;whiteSpace=wrap;html=1;boundedLbl=1;backgroundOutline=1;size=15;" parent="1" vertex="1">
          <mxGeometry x="20" y="2070" width="60" height="59" as="geometry" />
        </mxCell>
        <mxCell id="dy_9rE8HRgi9Pd3eRH8T-247" value="Update outputs if there is any new" style="text;html=1;strokeColor=none;fillColor=none;align=center;verticalAlign=middle;whiteSpace=wrap;rounded=0;" parent="1" vertex="1">
          <mxGeometry x="104.99999999999999" y="2067.5" width="95" height="20" as="geometry" />
        </mxCell>
        <mxCell id="dy_9rE8HRgi9Pd3eRH8T-248" value="Last synced" style="text;html=1;strokeColor=none;fillColor=none;align=center;verticalAlign=middle;whiteSpace=wrap;rounded=0;" parent="1" vertex="1">
          <mxGeometry x="110" y="2109" width="76.25" height="20" as="geometry" />
        </mxCell>
        <mxCell id="dy_9rE8HRgi9Pd3eRH8T-249" value="" style="endArrow=classic;html=1;entryX=1.05;entryY=0.542;entryDx=0;entryDy=0;entryPerimeter=0;" parent="1" edge="1">
          <mxGeometry width="50" height="50" relative="1" as="geometry">
            <mxPoint x="227" y="2101.65" as="sourcePoint" />
            <mxPoint x="80" y="2101.628" as="targetPoint" />
          </mxGeometry>
        </mxCell>
        <mxCell id="dy_9rE8HRgi9Pd3eRH8T-250" value="In-Memory DB" style="text;html=1;strokeColor=none;fillColor=none;align=center;verticalAlign=middle;whiteSpace=wrap;rounded=0;" parent="1" vertex="1">
          <mxGeometry x="10" y="2140" width="100" height="20" as="geometry" />
        </mxCell>
        <mxCell id="dy_9rE8HRgi9Pd3eRH8T-255" value="Wallet SDK" style="rounded=0;whiteSpace=wrap;html=1;" parent="1" vertex="1">
          <mxGeometry x="439.76" y="2420.25" width="70" height="20" as="geometry" />
        </mxCell>
        <mxCell id="dy_9rE8HRgi9Pd3eRH8T-256" value="Nexa" style="rounded=0;whiteSpace=wrap;html=1;" parent="1" vertex="1">
          <mxGeometry x="694.87" y="2420" width="60" height="20" as="geometry" />
        </mxCell>
        <mxCell id="dy_9rE8HRgi9Pd3eRH8T-258" value="" style="endArrow=none;dashed=1;html=1;entryX=0.5;entryY=1;entryDx=0;entryDy=0;" parent="1" target="dy_9rE8HRgi9Pd3eRH8T-255" edge="1">
          <mxGeometry width="50" height="50" relative="1" as="geometry">
            <mxPoint x="475" y="2520" as="sourcePoint" />
            <mxPoint x="460" y="2620" as="targetPoint" />
          </mxGeometry>
        </mxCell>
        <mxCell id="dy_9rE8HRgi9Pd3eRH8T-259" value="" style="endArrow=none;dashed=1;html=1;entryX=0.402;entryY=1.1;entryDx=0;entryDy=0;entryPerimeter=0;" parent="1" target="dy_9rE8HRgi9Pd3eRH8T-256" edge="1">
          <mxGeometry width="50" height="50" relative="1" as="geometry">
            <mxPoint x="719" y="2530" as="sourcePoint" />
            <mxPoint x="460" y="2620" as="targetPoint" />
          </mxGeometry>
        </mxCell>
        <mxCell id="dy_9rE8HRgi9Pd3eRH8T-267" value="getUnspentOutputs[derived keys]]" style="text;html=1;strokeColor=none;fillColor=none;align=center;verticalAlign=middle;whiteSpace=wrap;rounded=0;" parent="1" vertex="1">
          <mxGeometry x="262.43" y="2580" width="175.13" height="20" as="geometry" />
        </mxCell>
        <mxCell id="dy_9rE8HRgi9Pd3eRH8T-270" value="" style="endArrow=none;dashed=1;html=1;" parent="1" edge="1">
          <mxGeometry width="50" height="50" relative="1" as="geometry">
            <mxPoint x="443" y="110" as="sourcePoint" />
            <mxPoint x="442.5" y="40" as="targetPoint" />
          </mxGeometry>
        </mxCell>
        <mxCell id="dy_9rE8HRgi9Pd3eRH8T-274" value="" style="endArrow=classic;html=1;" parent="1" edge="1">
          <mxGeometry width="50" height="50" relative="1" as="geometry">
            <mxPoint x="435" y="919" as="sourcePoint" />
            <mxPoint x="215" y="919" as="targetPoint" />
          </mxGeometry>
        </mxCell>
        <mxCell id="dy_9rE8HRgi9Pd3eRH8T-275" value="" style="shape=cylinder2;whiteSpace=wrap;html=1;boundedLbl=1;backgroundOutline=1;size=15;" parent="1" vertex="1">
          <mxGeometry x="6.25" y="890" width="60" height="59" as="geometry" />
        </mxCell>
        <mxCell id="dy_9rE8HRgi9Pd3eRH8T-276" value="In-Memory DB" style="text;html=1;strokeColor=none;fillColor=none;align=center;verticalAlign=middle;whiteSpace=wrap;rounded=0;" parent="1" vertex="1">
          <mxGeometry x="-10" y="949" width="100" height="20" as="geometry" />
        </mxCell>
        <mxCell id="dy_9rE8HRgi9Pd3eRH8T-277" value="" style="endArrow=classic;html=1;exitX=0.881;exitY=0.859;exitDx=0;exitDy=0;exitPerimeter=0;" parent="1" source="dy_9rE8HRgi9Pd3eRH8T-163" edge="1">
          <mxGeometry width="50" height="50" relative="1" as="geometry">
            <mxPoint x="110" y="920" as="sourcePoint" />
            <mxPoint x="70" y="920" as="targetPoint" />
          </mxGeometry>
        </mxCell>
        <mxCell id="dy_9rE8HRgi9Pd3eRH8T-278" value="" style="shape=cylinder2;whiteSpace=wrap;html=1;boundedLbl=1;backgroundOutline=1;size=15;" parent="1" vertex="1">
          <mxGeometry x="20" y="1320" width="60" height="59" as="geometry" />
        </mxCell>
        <mxCell id="dy_9rE8HRgi9Pd3eRH8T-279" value="In-Memory DB" style="text;html=1;strokeColor=none;fillColor=none;align=center;verticalAlign=middle;whiteSpace=wrap;rounded=0;" parent="1" vertex="1">
          <mxGeometry x="3.75" y="1389.38" width="100" height="20" as="geometry" />
        </mxCell>
        <mxCell id="dy_9rE8HRgi9Pd3eRH8T-280" value="" style="endArrow=classic;html=1;" parent="1" edge="1">
          <mxGeometry width="50" height="50" relative="1" as="geometry">
            <mxPoint x="80" y="1359" as="sourcePoint" />
            <mxPoint x="230" y="1359" as="targetPoint" />
          </mxGeometry>
        </mxCell>
        <mxCell id="dy_9rE8HRgi9Pd3eRH8T-281" value="[Derived Keys]" style="text;html=1;strokeColor=none;fillColor=none;align=center;verticalAlign=middle;whiteSpace=wrap;rounded=0;" parent="1" vertex="1">
          <mxGeometry x="100" y="1320" width="100" height="20" as="geometry" />
        </mxCell>
        <mxCell id="dy_9rE8HRgi9Pd3eRH8T-282" value="Fetch every 10 minutes" style="text;html=1;strokeColor=none;fillColor=none;align=center;verticalAlign=middle;whiteSpace=wrap;rounded=0;" parent="1" vertex="1">
          <mxGeometry x="280" y="1940" width="110" height="20" as="geometry" />
        </mxCell>
        <mxCell id="dy_9rE8HRgi9Pd3eRH8T-283" value="" style="endArrow=classic;html=1;entryX=1.05;entryY=0.542;entryDx=0;entryDy=0;entryPerimeter=0;" parent="1" edge="1">
          <mxGeometry width="50" height="50" relative="1" as="geometry">
            <mxPoint x="238.51" y="1388.4" as="sourcePoint" />
            <mxPoint x="91.51" y="1388.3780000000002" as="targetPoint" />
            <Array as="points">
              <mxPoint x="140" y="1388" />
            </Array>
          </mxGeometry>
        </mxCell>
        <mxCell id="dy_9rE8HRgi9Pd3eRH8T-284" value="[Outputs]" style="text;html=1;strokeColor=none;fillColor=none;align=center;verticalAlign=middle;whiteSpace=wrap;rounded=0;" parent="1" vertex="1">
          <mxGeometry x="102.5" y="1399.38" width="95" height="20" as="geometry" />
        </mxCell>
        <mxCell id="dy_9rE8HRgi9Pd3eRH8T-286" value="getTransactions(unique TransactionHash from outputs)" style="text;html=1;strokeColor=none;fillColor=none;align=center;verticalAlign=middle;whiteSpace=wrap;rounded=0;" parent="1" vertex="1">
          <mxGeometry x="276.33" y="2180" width="140" height="20" as="geometry" />
        </mxCell>
        <mxCell id="dy_9rE8HRgi9Pd3eRH8T-287" value="" style="endArrow=classic;html=1;" parent="1" edge="1">
          <mxGeometry width="50" height="50" relative="1" as="geometry">
            <mxPoint x="246.32999999999998" y="2219" as="sourcePoint" />
            <mxPoint x="456.33" y="2219" as="targetPoint" />
          </mxGeometry>
        </mxCell>
        <mxCell id="dy_9rE8HRgi9Pd3eRH8T-288" value="getTransactions([transactionHash])" style="text;html=1;strokeColor=none;fillColor=none;align=center;verticalAlign=middle;whiteSpace=wrap;rounded=0;" parent="1" vertex="1">
          <mxGeometry x="513.84" y="2180" width="140" height="20" as="geometry" />
        </mxCell>
        <mxCell id="dy_9rE8HRgi9Pd3eRH8T-289" value="" style="endArrow=classic;html=1;" parent="1" edge="1">
          <mxGeometry width="50" height="50" relative="1" as="geometry">
            <mxPoint x="478.83" y="2220" as="sourcePoint" />
            <mxPoint x="698.83" y="2220" as="targetPoint" />
            <Array as="points">
              <mxPoint x="580" y="2220" />
            </Array>
          </mxGeometry>
        </mxCell>
        <mxCell id="dy_9rE8HRgi9Pd3eRH8T-290" value="" style="endArrow=classic;html=1;" parent="1" edge="1">
          <mxGeometry width="50" height="50" relative="1" as="geometry">
            <mxPoint x="459.76" y="2305" as="sourcePoint" />
            <mxPoint x="244.76" y="2305" as="targetPoint" />
          </mxGeometry>
        </mxCell>
        <mxCell id="dy_9rE8HRgi9Pd3eRH8T-291" value="[Transactions]" style="text;html=1;strokeColor=none;fillColor=none;align=center;verticalAlign=middle;whiteSpace=wrap;rounded=0;" parent="1" vertex="1">
          <mxGeometry x="316.95" y="2280" width="95" height="20" as="geometry" />
        </mxCell>
        <mxCell id="dy_9rE8HRgi9Pd3eRH8T-292" value="[Transactions]" style="text;html=1;strokeColor=none;fillColor=none;align=center;verticalAlign=middle;whiteSpace=wrap;rounded=0;" parent="1" vertex="1">
          <mxGeometry x="540.95" y="2270" width="87.63" height="30" as="geometry" />
        </mxCell>
        <mxCell id="dy_9rE8HRgi9Pd3eRH8T-293" value="" style="endArrow=classic;html=1;" parent="1" edge="1">
          <mxGeometry width="50" height="50" relative="1" as="geometry">
            <mxPoint x="704.76" y="2305" as="sourcePoint" />
            <mxPoint x="479.76" y="2305" as="targetPoint" />
          </mxGeometry>
        </mxCell>
        <mxCell id="dy_9rE8HRgi9Pd3eRH8T-294" value="If new Output" style="text;html=1;strokeColor=none;fillColor=none;align=center;verticalAlign=middle;whiteSpace=wrap;rounded=0;" parent="1" vertex="1">
          <mxGeometry x="280" y="2150" width="160" height="20" as="geometry" />
        </mxCell>
        <mxCell id="dy_9rE8HRgi9Pd3eRH8T-295" value="" style="endArrow=classic;html=1;exitX=0.952;exitY=0.901;exitDx=0;exitDy=0;exitPerimeter=0;" parent="1" source="dy_9rE8HRgi9Pd3eRH8T-226" edge="1">
          <mxGeometry width="50" height="50" relative="1" as="geometry">
            <mxPoint x="340" y="2260" as="sourcePoint" />
            <mxPoint x="40" y="2170" as="targetPoint" />
            <Array as="points">
              <mxPoint x="40" y="2304" />
            </Array>
          </mxGeometry>
        </mxCell>
        <mxCell id="dy_9rE8HRgi9Pd3eRH8T-296" value="Add new [Transactions]" style="text;html=1;strokeColor=none;fillColor=none;align=center;verticalAlign=middle;whiteSpace=wrap;rounded=0;" parent="1" vertex="1">
          <mxGeometry x="80" y="2270" width="95" height="20" as="geometry" />
        </mxCell>
        <mxCell id="dy_9rE8HRgi9Pd3eRH8T-297" value="Wallet" style="rounded=0;whiteSpace=wrap;html=1;" parent="1" vertex="1">
          <mxGeometry x="212.64" y="2420.25" width="80" height="20" as="geometry" />
        </mxCell>
        <mxCell id="dy_9rE8HRgi9Pd3eRH8T-298" value="" style="endArrow=none;dashed=1;html=1;exitX=0;exitY=0.25;exitDx=0;exitDy=0;entryX=0.336;entryY=1.25;entryDx=0;entryDy=0;entryPerimeter=0;" parent="1" target="dy_9rE8HRgi9Pd3eRH8T-297" edge="1">
          <mxGeometry width="50" height="50" relative="1" as="geometry">
            <mxPoint x="240.93499999999995" y="2521.565" as="sourcePoint" />
            <mxPoint x="244" y="2444.25" as="targetPoint" />
          </mxGeometry>
        </mxCell>
        <mxCell id="dy_9rE8HRgi9Pd3eRH8T-316" value="([unspentOutputs], senderAddress, Amount, satoshiPerBits)" style="text;html=1;strokeColor=none;fillColor=none;align=center;verticalAlign=middle;whiteSpace=wrap;rounded=0;" parent="1" vertex="1">
          <mxGeometry x="519.74" y="2740" width="170" height="50" as="geometry" />
        </mxCell>
        <mxCell id="dy_9rE8HRgi9Pd3eRH8T-317" value="getUnspentOutputs[derived keys]]" style="text;html=1;strokeColor=none;fillColor=none;align=center;verticalAlign=middle;whiteSpace=wrap;rounded=0;" parent="1" vertex="1">
          <mxGeometry x="519.74" y="2580" width="175.13" height="20" as="geometry" />
        </mxCell>
        <mxCell id="dy_9rE8HRgi9Pd3eRH8T-319" value="" style="endArrow=classic;html=1;" parent="1" edge="1">
          <mxGeometry width="50" height="50" relative="1" as="geometry">
            <mxPoint x="710" y="2685" as="sourcePoint" />
            <mxPoint x="479.12000000000023" y="2684.75" as="targetPoint" />
          </mxGeometry>
        </mxCell>
        <mxCell id="dy_9rE8HRgi9Pd3eRH8T-320" value="" style="endArrow=classic;html=1;" parent="1" edge="1">
          <mxGeometry width="50" height="50" relative="1" as="geometry">
            <mxPoint x="250" y="2799" as="sourcePoint" />
            <mxPoint x="460" y="2799" as="targetPoint" />
          </mxGeometry>
        </mxCell>
        <mxCell id="dy_9rE8HRgi9Pd3eRH8T-321" value="" style="endArrow=classic;html=1;" parent="1" edge="1">
          <mxGeometry width="50" height="50" relative="1" as="geometry">
            <mxPoint x="481.51" y="2799" as="sourcePoint" />
            <mxPoint x="708.51" y="2799" as="targetPoint" />
          </mxGeometry>
        </mxCell>
        <mxCell id="dy_9rE8HRgi9Pd3eRH8T-322" value="createTx([unspentOutputs], senderAddress, Amount, satoshiPerBits)" style="text;html=1;strokeColor=none;fillColor=none;align=center;verticalAlign=middle;whiteSpace=wrap;rounded=0;" parent="1" vertex="1">
          <mxGeometry x="280.01" y="2740" width="170" height="50" as="geometry" />
        </mxCell>
        <mxCell id="dy_9rE8HRgi9Pd3eRH8T-323" value="" style="endArrow=classic;html=1;" parent="1" edge="1">
          <mxGeometry width="50" height="50" relative="1" as="geometry">
            <mxPoint x="710" y="2860" as="sourcePoint" />
            <mxPoint x="483.0800000000002" y="2860" as="targetPoint" />
          </mxGeometry>
        </mxCell>
        <mxCell id="dy_9rE8HRgi9Pd3eRH8T-324" value="" style="endArrow=classic;html=1;" parent="1" edge="1">
          <mxGeometry width="50" height="50" relative="1" as="geometry">
            <mxPoint x="472.46000000000004" y="2860" as="sourcePoint" />
            <mxPoint x="245.5400000000004" y="2860" as="targetPoint" />
          </mxGeometry>
        </mxCell>
        <mxCell id="dy_9rE8HRgi9Pd3eRH8T-325" value="True" style="text;html=1;strokeColor=none;fillColor=none;align=center;verticalAlign=middle;whiteSpace=wrap;rounded=0;" parent="1" vertex="1">
          <mxGeometry x="320" y="2830" width="80" height="20" as="geometry" />
        </mxCell>
        <mxCell id="dy_9rE8HRgi9Pd3eRH8T-326" value="True" style="text;html=1;strokeColor=none;fillColor=none;align=center;verticalAlign=middle;whiteSpace=wrap;rounded=0;" parent="1" vertex="1">
          <mxGeometry x="560" y="2830" width="80" height="20" as="geometry" />
        </mxCell>
        <mxCell id="dy_9rE8HRgi9Pd3eRH8T-331" value="" style="endArrow=classic;html=1;" parent="1" edge="1">
          <mxGeometry width="50" height="50" relative="1" as="geometry">
            <mxPoint x="247.5" y="1770.5" as="sourcePoint" />
            <mxPoint x="457.5" y="1770.5" as="targetPoint" />
          </mxGeometry>
        </mxCell>
        <mxCell id="dy_9rE8HRgi9Pd3eRH8T-337" value="" style="endArrow=classic;html=1;" parent="1" edge="1">
          <mxGeometry width="50" height="50" relative="1" as="geometry">
            <mxPoint x="480" y="1760.5" as="sourcePoint" />
            <mxPoint x="700" y="1760.5" as="targetPoint" />
          </mxGeometry>
        </mxCell>
        <mxCell id="dy_9rE8HRgi9Pd3eRH8T-343" value="" style="endArrow=classic;html=1;entryX=1.05;entryY=0.542;entryDx=0;entryDy=0;entryPerimeter=0;" parent="1" edge="1">
          <mxGeometry width="50" height="50" relative="1" as="geometry">
            <mxPoint x="230" y="1823.5" as="sourcePoint" />
            <mxPoint x="83" y="1823.478" as="targetPoint" />
          </mxGeometry>
        </mxCell>
        <mxCell id="dy_9rE8HRgi9Pd3eRH8T-348" value="[Derived Keys]" style="text;html=1;strokeColor=none;fillColor=none;align=center;verticalAlign=middle;whiteSpace=wrap;rounded=0;" parent="1" vertex="1">
          <mxGeometry x="102.5" y="1421.52" width="100" height="20" as="geometry" />
        </mxCell>
        <mxCell id="dy_9rE8HRgi9Pd3eRH8T-349" value="[Derived Keys] with status used/unused" style="text;html=1;strokeColor=none;fillColor=none;align=center;verticalAlign=middle;whiteSpace=wrap;rounded=0;" parent="1" vertex="1">
          <mxGeometry x="280" y="1399.38" width="115" height="20" as="geometry" />
        </mxCell>
        <mxCell id="VSwW9jE1x60WQ4yRuWXA-2" value="Password should NEVER be persisted, it should always come directly from user, thats the whole point of having a seperate password!" style="shape=note;size=15;align=left;spacingLeft=10;html=1;whiteSpace=wrap;fillColor=#f8cecc;strokeColor=#b85450;" vertex="1" parent="1">
          <mxGeometry x="-280" y="323.75" width="190" height="146.25" as="geometry" />
        </mxCell>
        <mxCell id="VSwW9jE1x60WQ4yRuWXA-3" value="" style="edgeStyle=none;endArrow=none;exitX=0;exitY=0;dashed=1;html=1;exitDx=190;exitDy=80.625;exitPerimeter=0;" edge="1" source="VSwW9jE1x60WQ4yRuWXA-2" parent="1" target="dy_9rE8HRgi9Pd3eRH8T-127">
          <mxGeometry x="1" relative="1" as="geometry">
            <mxPoint x="-260" y="283.75" as="targetPoint" />
          </mxGeometry>
        </mxCell>
        <mxCell id="VSwW9jE1x60WQ4yRuWXA-6" style="rounded=0;orthogonalLoop=1;jettySize=auto;html=1;dashed=1;endArrow=none;endFill=0;" edge="1" parent="1" source="VSwW9jE1x60WQ4yRuWXA-5" target="aKae5eKDBznJ4Y1164LR-40">
          <mxGeometry relative="1" as="geometry" />
        </mxCell>
        <mxCell id="VSwW9jE1x60WQ4yRuWXA-5" value="How is this response happening without a corresponding request? The request should explicitly mention the SDK function name (with parameters)" style="shape=note;size=15;align=left;spacingLeft=10;html=1;whiteSpace=wrap;fillColor=#f8cecc;strokeColor=#b85450;" vertex="1" parent="1">
          <mxGeometry x="573.83" y="283.75" width="190" height="146.25" as="geometry" />
        </mxCell>
        <mxCell id="VSwW9jE1x60WQ4yRuWXA-8" style="edgeStyle=none;rounded=0;orthogonalLoop=1;jettySize=auto;html=1;entryX=0;entryY=0.75;entryDx=0;entryDy=0;dashed=1;endArrow=none;endFill=0;" edge="1" parent="1" source="VSwW9jE1x60WQ4yRuWXA-7" target="dy_9rE8HRgi9Pd3eRH8T-191">
          <mxGeometry relative="1" as="geometry" />
        </mxCell>
        <mxCell id="VSwW9jE1x60WQ4yRuWXA-7" value="Whats the difference b/w encrypted password and User password? Why do we need two? &lt;br&gt;The mnenomic and user password is sufficient, use the user password to encrypt the mnemonic.&lt;br&gt;So the user only has to backup the 12/24 word mnemonic." style="shape=note;size=15;align=left;spacingLeft=10;html=1;whiteSpace=wrap;fillColor=#f8cecc;strokeColor=#b85450;" vertex="1" parent="1">
          <mxGeometry x="-290" y="676.88" width="190" height="146.25" as="geometry" />
        </mxCell>
        <mxCell id="VSwW9jE1x60WQ4yRuWXA-10" style="edgeStyle=none;rounded=0;orthogonalLoop=1;jettySize=auto;html=1;dashed=1;endArrow=none;endFill=0;" edge="1" parent="1" source="VSwW9jE1x60WQ4yRuWXA-9" target="aKae5eKDBznJ4Y1164LR-63">
          <mxGeometry relative="1" as="geometry" />
        </mxCell>
        <mxCell id="VSwW9jE1x60WQ4yRuWXA-9" value="The GetCurrentBalance should be exposed by the SDK, instead of that logic being in the wallet/client.&lt;br&gt;No point in SDK if its going to lack any business logic.." style="shape=note;size=15;align=left;spacingLeft=10;html=1;whiteSpace=wrap;fillColor=#f8cecc;strokeColor=#b85450;" vertex="1" parent="1">
          <mxGeometry x="-180" y="1460" width="200" height="110" as="geometry" />
        </mxCell>
        <mxCell id="VSwW9jE1x60WQ4yRuWXA-11" value="What exactly is the purpose of fetching the full Txn? I thought we have all fields needed in the getOutputs or getUTXOs APIs to display the &quot;recent txns&quot; page..?" style="shape=note;size=15;align=left;spacingLeft=10;html=1;whiteSpace=wrap;fillColor=#f8cecc;strokeColor=#b85450;" vertex="1" parent="1">
          <mxGeometry x="-250" y="1734.01" width="200" height="110" as="geometry" />
        </mxCell>
        <mxCell id="VSwW9jE1x60WQ4yRuWXA-13" style="edgeStyle=none;rounded=0;orthogonalLoop=1;jettySize=auto;html=1;entryX=-0.019;entryY=0.52;entryDx=0;entryDy=0;entryPerimeter=0;dashed=1;endArrow=none;endFill=0;" edge="1" parent="1" source="VSwW9jE1x60WQ4yRuWXA-12" target="dy_9rE8HRgi9Pd3eRH8T-278">
          <mxGeometry relative="1" as="geometry" />
        </mxCell>
        <mxCell id="VSwW9jE1x60WQ4yRuWXA-12" value="What is this In-memory DB exactly? What technology?" style="shape=note;size=15;align=left;spacingLeft=10;html=1;whiteSpace=wrap;fillColor=#f8cecc;strokeColor=#b85450;" vertex="1" parent="1">
          <mxGeometry x="-285" y="1285" width="200" height="110" as="geometry" />
        </mxCell>
        <mxCell id="VSwW9jE1x60WQ4yRuWXA-14" value="10 mins is too long, should poll much more often, 30 secs!&lt;br&gt;&lt;br&gt;&lt;br&gt;Also, you are updating the in-memory DB alright, but doesn&#39;t show how the page gets seamlessly refreshed with new information" style="shape=note;size=15;align=left;spacingLeft=10;html=1;whiteSpace=wrap;fillColor=#f8cecc;strokeColor=#b85450;" vertex="1" parent="1">
          <mxGeometry x="-260" y="1950" width="200" height="210" as="geometry" />
        </mxCell>
        <mxCell id="VSwW9jE1x60WQ4yRuWXA-16" style="edgeStyle=none;rounded=0;orthogonalLoop=1;jettySize=auto;html=1;dashed=1;endArrow=none;endFill=0;" edge="1" parent="1" source="VSwW9jE1x60WQ4yRuWXA-15" target="dy_9rE8HRgi9Pd3eRH8T-267">
          <mxGeometry relative="1" as="geometry" />
        </mxCell>
        <mxCell id="VSwW9jE1x60WQ4yRuWXA-15" value="When a Txn-1 is being sent out, you should update the local cache too!. So that when immedietely after you are making the Txn-2 we dont accidentally include the same UTXOs (double spending!)&lt;br&gt;&lt;br&gt;Even though you call the getUnspentOutupts, you should crosscheck against the local cache. The local cache can expire after 30 mins (say in some chain-re-org scenarios) so you are not permanently stuck with stale utxos." style="shape=note;size=15;align=left;spacingLeft=10;html=1;whiteSpace=wrap;fillColor=#f8cecc;strokeColor=#b85450;" vertex="1" parent="1">
          <mxGeometry x="-200" y="2460" width="220" height="240" as="geometry" />
        </mxCell>
      </root>
    </mxGraphModel>
  </diagram>
</mxfile>
